<?xml version="1.0" encoding="utf-8"?>
<!-- Generator: Adobe Illustrator 23.0.3, SVG Export Plug-In . SVG Version: 6.00 Build 0)  -->
<svg version="1.1" xmlns="http://www.w3.org/2000/svg" xmlns:xlink="http://www.w3.org/1999/xlink" x="0px" y="0px"
	 viewBox="0 0 1920 1080" style="enable-background:new 0 0 1920 1080;" xml:space="preserve">
<style type="text/css">
	.st0{display:none;}
	.st1{display:inline;}
	.st2{fill:#E87C7C;}
	.st3{fill:#85FF93;}
	.st4{font-family:'PalatinoLinotype-Roman';}
	.st5{font-size:15.4286px;}
	.st6{display:inline;fill:#85FF93;}
	.st7{fill:#E50A0A;}
</style>
<g id="Layer_1" class="st0">
	<g class="st1">
		<g>
			<ellipse class="st2" cx="269.56" cy="155" rx="58.44" ry="43"/>
		</g>
		<g>
			<ellipse class="st3" cx="158.94" cy="153" rx="50.94" ry="49"/>
		</g>
		<text transform="matrix(1.1373 0 0 1 136.2305 159.6738)" class="st4 st5">MAIN          HISTORY</text>
		<g>
			<rect x="92" y="91" class="st2" width="907" height="828"/>
		</g>
		<g class="st0">
			<rect x="92" y="91" class="st6" width="907" height="828"/>
		</g>
	</g>
</g>
<g id="Layer_2">
	<g>
		<path class="st7" d="M999,606c0-201.58-170.75-365-391.11-365S201,404.42,201,606s178.64,365,399,365S999,807.58,999,606z"/>
		<g>
			<g>
				<path d="M794,385h-24v-40h-40v40H466v-40h-40v40h-24c-33.14,0-60,26.86-60,60v352c0,33.14,26.86,60,60,60h392
					c33.14,0,60-26.86,60-60V445C854,411.86,827.14,385,794,385z M794,817H402c-11.05,0-20-8.95-20-20V533h432v264
					C814,808.05,805.05,817,794,817z M814,493H382v-48c0-11.05,8.95-20,20-20h24v40h40v-40h264v40h40v-40h24c11.05,0,20,8.95,20,20
					V493z"/>
			</g>
		</g>
		<g>
			<g>
				<rect x="418" y="575" width="40" height="40"/>
			</g>
		</g>
		<g>
			<g>
				<rect x="498" y="575" width="40" height="40"/>
			</g>
		</g>
		<g>
			<g>
				<rect x="578" y="575" width="40" height="40"/>
			</g>
		</g>
		<g>
			<g>
				<rect x="658" y="575" width="40" height="40"/>
			</g>
		</g>
		<g>
			<g>
				<rect x="738" y="575" width="40" height="40"/>
			</g>
		</g>
		<g>
			<g>
				<rect x="418" y="655" width="40" height="40"/>
			</g>
		</g>
		<g>
			<g>
				<rect x="498" y="655" width="40" height="40"/>
			</g>
		</g>
		<g>
			<g>
				<rect x="578" y="655" width="40" height="40"/>
			</g>
		</g>
		<g>
			<g>
				<rect x="658" y="655" width="40" height="40"/>
			</g>
		</g>
		<g>
			<g>
				<rect x="418" y="735" width="40" height="40"/>
			</g>
		</g>
		<g>
			<g>
				<rect x="498" y="735" width="40" height="40"/>
			</g>
		</g>
		<g>
			<g>
				<rect x="578" y="735" width="40" height="40"/>
			</g>
		</g>
		<g>
			<g>
				<rect x="658" y="735" width="40" height="40"/>
			</g>
		</g>
		<g>
			<g>
				<rect x="738" y="655" width="40" height="40"/>
			</g>
		</g>
		<g>
		</g>
		<g>
		</g>
		<g>
		</g>
		<g>
		</g>
		<g>
		</g>
		<g>
		</g>
		<g>
		</g>
		<g>
		</g>
		<g>
		</g>
		<g>
		</g>
		<g>
		</g>
		<g>
		</g>
		<g>
		</g>
		<g>
		</g>
		<g>
		</g>
	</g>
</g>
</svg>
