<?xml version="1.0" encoding="utf-8"?>
<!-- Generator: Adobe Illustrator 23.0.3, SVG Export Plug-In . SVG Version: 6.00 Build 0)  -->
<svg version="1.1" id="Layer_1" xmlns="http://www.w3.org/2000/svg" xmlns:xlink="http://www.w3.org/1999/xlink" x="0px" y="0px"
	 viewBox="0 0 1920 1080" style="enable-background:new 0 0 1920 1080;" xml:space="preserve">
<style type="text/css">
	.st0{display:none;}
	.st1{display:inline;}
	.st2{fill:#E87C7C;}
	.st3{fill:#85FF93;}
	.st4{font-family:'PalatinoLinotype-Roman';}
	.st5{font-size:15.4286px;}
	.st6{display:inline;fill:#85FF93;}
	.st7{fill:#CB2E04;}
</style>
<g class="st0">
	<g class="st1">
		<g>
			<ellipse class="st2" cx="269.6" cy="155" rx="58.4" ry="43"/>
		</g>
		<g>
			<ellipse class="st3" cx="158.9" cy="153" rx="50.9" ry="49"/>
		</g>
		<text transform="matrix(1.1373 0 0 1 136.2314 159.6738)" class="st4 st5">MAIN          HISTORY</text>
		<g>
			<rect x="92" y="91" class="st2" width="907" height="828"/>
		</g>
		<g class="st0">
			<rect x="92" y="91" class="st6" width="907" height="828"/>
		</g>
	</g>
</g>
<g>
	<g>
		<g>
			<g>
				<path d="M794,385h-24v-40h-40v40H466v-40h-40v40h-24c-33.1,0-60,26.9-60,60v352c0,33.1,26.9,60,60,60h392c33.1,0,60-26.9,60-60
					V445C854,411.9,827.1,385,794,385z M794,817H402c-11,0-20-9-20-20V533h432v264C814,808,805,817,794,817z M814,493H382v-48
					c0-11,9-20,20-20h24v40h40v-40h264v40h40v-40h24c11,0,20,9,20,20V493z"/>
			</g>
		</g>
		<g>
			<g>
				<rect x="418" y="575" width="40" height="40"/>
			</g>
		</g>
		<g>
			<g>
				<rect x="498" y="575" width="40" height="40"/>
			</g>
		</g>
		<g>
			<g>
				<rect x="578" y="575" width="40" height="40"/>
			</g>
		</g>
		<g>
			<g>
				<rect x="658" y="575" width="40" height="40"/>
			</g>
		</g>
		<g>
			<g>
				<rect x="738" y="575" width="40" height="40"/>
			</g>
		</g>
		<g>
			<g>
				<rect x="418" y="655" width="40" height="40"/>
			</g>
		</g>
		<g>
			<g>
				<rect x="498" y="655" width="40" height="40"/>
			</g>
		</g>
		<g>
			<g>
				<rect x="578" y="655" width="40" height="40"/>
			</g>
		</g>
		<g>
			<g>
				<rect x="658" y="655" width="40" height="40"/>
			</g>
		</g>
		<g>
			<g>
				<rect x="418" y="735" width="40" height="40"/>
			</g>
		</g>
		<g>
			<g>
				<rect x="498" y="735" width="40" height="40"/>
			</g>
		</g>
		<g>
			<g>
				<rect x="578" y="735" width="40" height="40"/>
			</g>
		</g>
		<g>
			<g>
				<rect x="658" y="735" width="40" height="40"/>
			</g>
		</g>
		<g>
			<g>
				<rect x="738" y="655" width="40" height="40"/>
			</g>
		</g>
		<path class="st7" d="M901,414.3c0-56.5-43.4-102.3-99.5-102.3c-56,0-103.5,45.8-103.5,102.3s45.4,102.3,101.5,102.3
			S901,470.7,901,414.3z"/>
	</g>
</g>
</svg>
