<?xml version="1.0" encoding="utf-8"?>
<!-- Generator: Adobe Illustrator 23.0.3, SVG Export Plug-In . SVG Version: 6.00 Build 0)  -->
<svg version="1.1" id="Layer_1" xmlns="http://www.w3.org/2000/svg" xmlns:xlink="http://www.w3.org/1999/xlink" x="0px" y="0px"
	 viewBox="0 0 1920 1080" style="enable-background:new 0 0 1920 1080;" xml:space="preserve">
<style type="text/css">
	.st0{fill:#FF0000;}
	.st1{fill:none;}
	.st2{fill:#FF0000;stroke:#FF0000;stroke-width:27;stroke-linecap:round;stroke-miterlimit:10;}
	.st3{fill:none;stroke:#FF0000;stroke-width:27;stroke-linecap:round;stroke-miterlimit:10;}
</style>
<g>
	<path class="st0" d="M826,291c29.58,0,58.25,5.79,85.24,17.2c26.08,11.03,49.5,26.82,69.62,46.94
		c20.12,20.12,35.91,43.54,46.94,69.62c11.41,26.98,17.2,55.66,17.2,85.24c0,29.58-5.79,58.25-17.2,85.24
		c-11.03,26.08-26.82,49.5-46.94,69.62c-20.12,20.12-43.54,35.91-69.62,46.94C884.25,723.21,855.58,729,826,729
		s-58.25-5.79-85.24-17.2c-26.08-11.03-49.5-26.82-69.62-46.94c-20.12-20.12-35.91-43.54-46.94-69.62
		C612.79,568.25,607,539.58,607,510c0-29.58,5.79-58.25,17.2-85.24c11.03-26.08,26.82-49.5,46.94-69.62
		c20.12-20.12,43.54-35.91,69.62-46.94C767.75,296.79,796.42,291,826,291 M826,267c-134.21,0-243,108.79-243,243s108.79,243,243,243
		s243-108.79,243-243S960.21,267,826,267L826,267z"/>
</g>
<line class="st1" x1="723.04" y1="410.41" x2="927.04" y2="622.41"/>
<line class="st2" x1="912.5" y1="401.5" x2="741.34" y2="612.06"/>
<line class="st3" x1="733.5" y1="413.5" x2="923.5" y2="610.5"/>
</svg>
